# xmcd CD database file
#
# Track frame offsets:
#	150
#	14577
#	36667
#	58787
#	77292
#	96417
#	118825
#	140760
#	157662
#	174282
#	194147
#	218392
#
# Disc length: 3110 seconds
#
# Revision: 0
# Processed by: cddbd v1.4PL0 Copyright (c) Steve Scherf et al.
# Submitted via: CDex 1.50Beta7
#
DISCID=a50c240c
DTITLE=Various Artist - Jazz På Norsk
DYEAR=1990
DGENRE=Jazz
TTITLE0=Småbarnas Nasjonalsang
TTITLE1=Den Som Var En Løvetann
TTITLE2=Det Har Vi
TTITLE3=Markje Grønas, Snjohen Bråna
TTITLE4=Fola, Fola Blakken
TTITLE5=Nidelven
TTITLE6=Den Siste Laurdagskvelden
TTITLE7=Te Kor Stand Og Te Kor Alder
TTITLE8=Jeg Lagde Meg Så Silde
TTITLE9=Jeg Har En Tulle
TTITLE10=Sjømannsvise
TTITLE11=Småbarnas Nasjonalsang
EXTD=YEAR: 1990
EXTT0=
EXTT1=
EXTT2=
EXTT3=
EXTT4=
EXTT5=
EXTT6=
EXTT7=
EXTT8=
EXTT9=
EXTT10=
EXTT11=
PLAYORDER=
